<?xml version="1.0" encoding="UTF-8"?>
<svg xmlns="http://www.w3.org/2000/svg" xmlns:xlink="http://www.w3.org/1999/xlink" viewBox="0 0 788.06 619.64">
  <defs>
    <style>
      .cls-1, .cls-2, .cls-3 {
        fill: none;
      }

      .cls-4 {
        fill: #ef391b;
      }

      .cls-5, .cls-2 {
        mix-blend-mode: multiply;
        opacity: .15;
      }

      .cls-2 {
        stroke: #eaa549;
        stroke-width: 2px;
      }

      .cls-2, .cls-6, .cls-3 {
        stroke-miterlimit: 10;
      }

      .cls-7 {
        isolation: isolate;
      }

      .cls-8 {
        fill: #f7f6e2;
      }

      .cls-6 {
        fill: #fcfced;
        stroke: #c7b299;
        stroke-width: 3px;
      }

      .cls-9 {
        clip-path: url(#clippath-1);
      }

      .cls-10 {
        fill: #eaa549;
      }

      .cls-3 {
        filter: url(#drop-shadow-1);
        stroke: #fcfced;
        stroke-width: 20px;
      }

      .cls-11 {
        clip-path: url(#clippath);
      }
    </style>
    <clipPath id="clippath">
      <ellipse class="cls-8" cx="394.03" cy="309.96" rx="323.34" ry="238.4"/>
    </clipPath>
    <filter id="drop-shadow-1" x="70.69" y="71.55" width="646.68" height="476.81" filterUnits="userSpaceOnUse">
      <feOffset dx="0" dy="10"/>
      <feGaussianBlur result="blur" stdDeviation="0"/>
      <feFlood flood-color="#eaa549" flood-opacity=".15"/>
      <feComposite in2="blur" operator="in"/>
      <feComposite in="SourceGraphic"/>
    </filter>
    <clipPath id="clippath-1">
      <ellipse class="cls-1" cx="393.21" cy="311.33" rx="186.27" ry="141.63"/>
    </clipPath>
  </defs>
  <g class="cls-7">
    <g id="_레이어_2" data-name="레이어 2">
      <g id="_레이어_1-2" data-name="레이어 1">
        <rect class="cls-6" x="368.43" y="333.51" width="51.2" height="518.07" rx="14.45" ry="14.45" transform="translate(-198.51 986.58) rotate(-90)"/>
        <path class="cls-6" d="M1.5,296.95c0-113.1,13.2-188.12,24.38-231.38,7.42-28.72,33.15-49.94,64.3-53.07C139.96,7.5,233.21,1.5,394.03,1.5c160.82,0,254.07,6,303.86,11,31.15,3.13,56.88,24.35,64.3,53.07,11.18,43.26,24.38,118.27,24.38,231.38s-13.2,188.12-24.38,231.38c-7.42,28.72-33.15,49.94-64.3,53.07-49.79,5-143.04,11-303.86,11-160.82,0-254.07-6-303.86-11-31.15-3.13-56.88-24.35-64.3-53.07C14.7,485.06,1.5,410.05,1.5,296.95Z"/>
        <path class="cls-4" d="M390.02,42.51c-151.9,0-294.62,8.32-329.18,32.69-30.74,21.68-41.57,134.56-41.57,234.77,0,100.22,8.16,211.25,46.64,238.18,50.73,35.51,172.22,29.28,324.12,29.28,151.9,0,273.39,6.23,324.12-29.28,38.47-26.93,46.64-137.96,46.64-238.18,0-100.22-10.83-213.1-41.57-234.77-34.56-24.37-177.28-32.69-329.18-32.69"/>
        <g>
          <ellipse class="cls-8" cx="394.03" cy="309.96" rx="323.34" ry="238.4"/>
          <g class="cls-11">
            <g class="cls-5">
              <path class="cls-10" d="M394.03,112.62c40.73,0,80.19,5.73,117.3,17.04,35.56,10.84,67.42,26.29,94.69,45.93,26.78,19.29,47.72,41.61,62.23,66.33,14.67,24.98,22.11,51.42,22.11,78.57s-7.44,53.59-22.11,78.57c-14.52,24.72-35.45,47.04-62.23,66.33-27.27,19.64-59.12,35.09-94.69,45.93-37.11,11.31-76.57,17.04-117.3,17.04s-80.19-5.73-117.3-17.04c-35.56-10.84-67.42-26.29-94.69-45.93-26.78-19.29-47.72-41.61-62.23-66.33-14.67-24.98-22.11-51.42-22.11-78.57s7.44-53.59,22.11-78.57c14.52-24.72,35.45-47.04,62.23-66.33,27.27-19.64,59.12-35.09,94.69-45.93,37.11-11.31,76.57-17.04,117.3-17.04M394.03,92.62c-174.7,0-316.33,102.02-316.33,227.87s141.62,227.87,316.33,227.87,316.33-102.02,316.33-227.87-141.62-227.87-316.33-227.87h0Z"/>
            </g>
            <ellipse class="cls-3" cx="394.03" cy="309.96" rx="323.34" ry="238.4"/>
          </g>
        </g>
        <g class="cls-9">
          <line class="cls-2" x1="265.01" y1="533.64" x2="523.04" y2="86.73"/>
          <line class="cls-2" x1="138.95" y1="457.59" x2="648.86" y2="163.2"/>
          <line class="cls-2" x1="522.8" y1="533.64" x2="264.77" y2="86.73"/>
          <line class="cls-2" x1="648.86" y1="457.59" x2="138.95" y2="163.2"/>
          <line class="cls-2" x1="688.3" y1="310.39" x2="99.51" y2="310.39"/>
          <line class="cls-2" x1="393.9" y1="604.79" x2="393.9" y2="16"/>
        </g>
        <g>
          <path class="cls-4" d="M378.22,150.76v-35.94h-10.14v-6.06h16.44v42h-6.3ZM378.22,150.76v-6h.6v6h-.6ZM383.92,150.76v-6h.6v6h-.6Z"/>
          <path class="cls-4" d="M392.74,138.4c0-2.28.51-4.33,1.53-6.15,1.02-1.82,2.44-3.24,4.26-4.26,1.82-1.02,3.87-1.53,6.15-1.53h1.14c1.68,0,3.08-.55,4.2-1.65,1.12-1.1,1.68-2.49,1.68-4.17s-.56-3.07-1.68-4.17c-1.12-1.1-2.52-1.65-4.2-1.65h-12.66v-6.06h12.96c2.24,0,4.28.52,6.12,1.56,1.84,1.04,3.29,2.47,4.35,4.29,1.06,1.82,1.59,3.83,1.59,6.03s-.53,4.2-1.59,6c-1.06,1.8-2.51,3.21-4.35,4.23-1.84,1.02-3.88,1.53-6.12,1.53h-.84c-1.8,0-3.29.58-4.47,1.74-1.18,1.16-1.77,2.62-1.77,4.38v6.12h18.72v6.12h-25.02v-12.36Z"/>
        </g>
        <path class="cls-4" d="M393.91,521.68c-2.48,0-4.74-.59-6.78-1.77-2.04-1.18-3.64-2.82-4.8-4.92-1.16-2.1-1.74-4.51-1.74-7.23v-7.5c0-4.28.82-8.02,2.46-11.22,1.64-3.2,3.93-5.66,6.87-7.38,2.94-1.72,6.33-2.58,10.17-2.58h4.56v5.76h-4.02c-2.6,0-4.89.54-6.87,1.62-1.98,1.08-3.54,2.64-4.68,4.68-1.14,2.04-1.77,4.44-1.89,7.2.8-.88,1.86-1.59,3.18-2.13,1.32-.54,2.72-.81,4.2-.81h.06c2.28,0,4.38.58,6.3,1.74s3.46,2.74,4.62,4.74c1.16,2,1.74,4.22,1.74,6.66s-.58,4.72-1.74,6.72-2.75,3.57-4.77,4.71c-2.02,1.14-4.27,1.71-6.75,1.71h-.12ZM394.03,515.38c1.2,0,2.32-.31,3.36-.93,1.04-.62,1.86-1.46,2.46-2.52.6-1.06.9-2.19.9-3.39s-.3-2.38-.9-3.42c-.6-1.04-1.42-1.87-2.46-2.49-1.04-.62-2.16-.93-3.36-.93h-.12c-1.2,0-2.32.31-3.36.93-1.04.62-1.87,1.45-2.49,2.49-.62,1.04-.93,2.18-.93,3.42s.31,2.38.93,3.42c.62,1.04,1.45,1.87,2.49,2.49,1.04.62,2.16.93,3.36.93h.12Z"/>
        <path class="cls-4" d="M487.9,505.23v-6.12h13.74c1.88,0,3.43-.61,4.65-1.83,1.22-1.22,1.83-2.75,1.83-4.59s-.61-3.36-1.83-4.56c-1.22-1.2-2.77-1.8-4.65-1.8h-11.76v-23.1h24.72v6.06h-18.42v11.1h5.7c2.4,0,4.56.53,6.48,1.59,1.92,1.06,3.42,2.53,4.5,4.41,1.08,1.88,1.62,4,1.62,6.36s-.54,4.49-1.62,6.39c-1.08,1.9-2.58,3.39-4.5,4.47-1.92,1.08-4.08,1.62-6.48,1.62h-13.98Z"/>
        <path class="cls-4" d="M280.4,505.23l15-37.62,1.26,1.68h-23.4v-6.06h28.32v5.7l-14.28,36.3h-6.9Z"/>
        <path class="cls-4" d="M495.73,167.17v-35.94h-10.14v-6.06h16.44v42h-6.3ZM495.73,167.17v-6h.6v6h-.6ZM501.43,167.17v-6h.6v6h-.6Z"/>
        <g>
          <path class="cls-4" d="M279.37,167.17v-35.94h-10.14v-6.06h16.44v42h-6.3ZM279.37,167.17v-6h.6v6h-.6ZM285.07,167.17v-6h.6v6h-.6Z"/>
          <path class="cls-4" d="M301.74,167.17v-35.94h-10.14v-6.06h16.44v42h-6.3ZM301.74,167.17v-6h.6v6h-.6ZM307.44,167.17v-6h.6v6h-.6Z"/>
        </g>
        <path class="cls-4" d="M601.29,442.51v-14.16h-18.3v-27.84h6.3v21.78h12v-16.62h6.3v16.62h8.04v6.06h-8.04v14.16h-6.3Z"/>
        <path class="cls-4" d="M194.17,441.69c-2.32,0-4.45-.56-6.39-1.68-1.94-1.12-3.47-2.64-4.59-4.56-1.12-1.92-1.68-4.04-1.68-6.36,0-2.2.54-4.21,1.62-6.03,1.08-1.82,2.58-3.29,4.5-4.41l-.06,1.44c-1.68-1.04-3.01-2.41-3.99-4.11-.98-1.7-1.47-3.55-1.47-5.55,0-2.16.53-4.16,1.59-6,1.06-1.84,2.52-3.29,4.38-4.35,1.86-1.06,3.89-1.59,6.09-1.59h.12c2.2,0,4.22.54,6.06,1.62,1.84,1.08,3.3,2.53,4.38,4.35,1.08,1.82,1.62,3.81,1.62,5.97,0,2.04-.49,3.89-1.47,5.55-.98,1.66-2.35,3.03-4.11,4.11v-1.44c1.92,1.08,3.43,2.54,4.53,4.38,1.1,1.84,1.65,3.86,1.65,6.06s-.56,4.39-1.68,6.33c-1.12,1.94-2.65,3.47-4.59,4.59-1.94,1.12-4.07,1.68-6.39,1.68h-.12ZM194.28,435.39c1.08,0,2.1-.29,3.06-.87s1.72-1.35,2.28-2.31c.56-.96.84-2,.84-3.12s-.28-2.16-.84-3.12c-.56-.96-1.32-1.73-2.28-2.31-.96-.58-1.98-.87-3.06-.87h-.12c-1.12,0-2.15.29-3.09.87-.94.58-1.69,1.35-2.25,2.31-.56.96-.84,2-.84,3.12s.28,2.16.84,3.12c.56.96,1.31,1.73,2.25,2.31.94.58,1.97.87,3.09.87h.12ZM194.28,416.31c1,0,1.94-.27,2.82-.81.88-.54,1.58-1.26,2.1-2.16.52-.9.78-1.87.78-2.91s-.26-2-.78-2.88c-.52-.88-1.22-1.59-2.1-2.13-.88-.54-1.82-.81-2.82-.81h-.12c-1.04,0-1.99.26-2.85.78-.86.52-1.55,1.23-2.07,2.13-.52.9-.78,1.87-.78,2.91s.26,2.01.78,2.91c.52.9,1.21,1.62,2.07,2.16.86.54,1.81.81,2.85.81h.12Z"/>
        <path class="cls-4" d="M586.08,208.6c0-2.28.51-4.33,1.53-6.15,1.02-1.82,2.44-3.24,4.26-4.26,1.82-1.02,3.87-1.53,6.15-1.53h1.14c1.68,0,3.08-.55,4.2-1.65,1.12-1.1,1.68-2.49,1.68-4.17s-.56-3.07-1.68-4.17c-1.12-1.1-2.52-1.65-4.2-1.65h-12.66v-6.06h12.96c2.24,0,4.28.52,6.12,1.56,1.84,1.04,3.29,2.47,4.35,4.29,1.06,1.82,1.59,3.83,1.59,6.03s-.53,4.2-1.59,6c-1.06,1.8-2.51,3.21-4.35,4.23-1.84,1.02-3.88,1.53-6.12,1.53h-.84c-1.8,0-3.29.58-4.47,1.74-1.18,1.16-1.77,2.62-1.77,4.38v6.12h18.72v6.12h-25.02v-12.36Z"/>
        <g>
          <path class="cls-4" d="M177.9,220.47v-35.94h-10.14v-6.06h16.44v42h-6.3ZM177.9,220.47v-6h.6v6h-.6ZM183.6,220.47v-6h.6v6h-.6Z"/>
          <path class="cls-4" d="M206.52,221.07c-2.64,0-5.02-.61-7.14-1.83-2.12-1.22-3.78-2.9-4.98-5.04-1.2-2.14-1.8-4.55-1.8-7.23v-15.06c0-2.68.6-5.09,1.8-7.23,1.2-2.14,2.86-3.81,4.98-5.01,2.12-1.2,4.5-1.8,7.14-1.8s5.08.6,7.2,1.8c2.12,1.2,3.78,2.87,4.98,5.01,1.2,2.14,1.8,4.55,1.8,7.23v15.06c0,2.68-.6,5.09-1.8,7.23-1.2,2.14-2.86,3.82-4.98,5.04-2.12,1.22-4.52,1.83-7.2,1.83ZM206.52,215.43c1.44,0,2.75-.34,3.93-1.02,1.18-.68,2.1-1.62,2.76-2.82.66-1.2.99-2.54.99-4.02v-16.2c0-1.48-.33-2.82-.99-4.02-.66-1.2-1.57-2.14-2.73-2.82-1.16-.68-2.48-1.02-3.96-1.02s-2.74.34-3.9,1.02c-1.16.68-2.07,1.62-2.73,2.82-.66,1.2-.99,2.54-.99,4.02v16.2c0,1.48.33,2.82.99,4.02.66,1.2,1.57,2.14,2.73,2.82,1.16.68,2.46,1.02,3.9,1.02Z"/>
        </g>
        <path class="cls-4" d="M627.57,328.54v-6.12h12.72c1.8,0,3.29-.58,4.47-1.74s1.77-2.62,1.77-4.38-.59-3.22-1.77-4.38c-1.18-1.16-2.67-1.74-4.47-1.74h-9.42v-5.94h9.72c1.72,0,3.14-.55,4.26-1.65,1.12-1.1,1.68-2.49,1.68-4.17s-.56-3.07-1.68-4.17c-1.12-1.1-2.54-1.65-4.26-1.65h-13.02v-6.06h13.5c2.28,0,4.33.51,6.15,1.53,1.82,1.02,3.25,2.42,4.29,4.2,1.04,1.78,1.56,3.79,1.56,6.03,0,1.92-.4,3.63-1.2,5.13-.8,1.5-1.98,2.79-3.54,3.87,1.52,1,2.69,2.28,3.51,3.84.82,1.56,1.23,3.3,1.23,5.22,0,2.32-.53,4.4-1.59,6.24-1.06,1.84-2.53,3.29-4.41,4.35-1.88,1.06-3.98,1.59-6.3,1.59h-13.2Z"/>
        <path class="cls-4" d="M137.85,328.54v-5.82h3.84c2.84,0,5.31-.58,7.41-1.74s3.7-2.82,4.8-4.98c1.1-2.16,1.65-4.72,1.65-7.68v-1.74l1.32,1.14c-.92,1.48-2.12,2.59-3.6,3.33-1.48.74-3.1,1.11-4.86,1.11h-.12c-2.4,0-4.6-.58-6.6-1.74-2-1.16-3.58-2.74-4.74-4.74-1.16-2-1.74-4.2-1.74-6.6s.59-4.66,1.77-6.66c1.18-2,2.78-3.58,4.8-4.74,2.02-1.16,4.25-1.74,6.69-1.74h.12c2.48,0,4.74.59,6.78,1.77,2.04,1.18,3.65,2.82,4.83,4.92,1.18,2.1,1.77,4.45,1.77,7.05v8.1c0,4.12-.82,7.75-2.46,10.89-1.64,3.14-3.95,5.57-6.93,7.29-2.98,1.72-6.41,2.58-10.29,2.58h-4.44ZM148.65,305.86c1.2,0,2.32-.31,3.36-.93,1.04-.62,1.87-1.45,2.49-2.49.62-1.04.93-2.16.93-3.36s-.31-2.38-.93-3.42c-.62-1.04-1.44-1.87-2.46-2.49-1.02-.62-2.15-.93-3.39-.93h-.12c-1.2,0-2.32.31-3.36.93-1.04.62-1.87,1.45-2.49,2.49-.62,1.04-.93,2.18-.93,3.42s.31,2.32.93,3.36c.62,1.04,1.45,1.87,2.49,2.49,1.04.62,2.16.93,3.36.93h.12Z"/>
        <circle class="cls-4" cx="394.03" cy="311.33" r="26.42"/>
      </g>
    </g>
  </g>
</svg>